<svg xmlns="http://www.w3.org/2000/svg" viewBox="0 0 24 24">
  <path fill="black" d="M12 2.163c3.204 0 3.584.012 4.85.07 1.366.062 2.633.334 3.608 1.31.975.976 1.248 2.243 1.31 3.608.058 1.266.07 1.646.07 4.85s-.012 3.584-.07 4.85c-.062 1.366-.334 2.633-1.31 3.608-.976.975-2.243 1.248-3.608 1.31-1.266.058-1.646.07-4.85.07s-3.584-.012-4.85-.07c-1.366-.062-2.633-.334-3.608-1.31-.975-.976-1.248-2.243-1.31-3.608C2.175 15.584 2.163 15.204 2.163 12s.012-3.584.07-4.85c.062-1.366.334-2.633 1.31-3.608.976-.975 2.243-1.248 3.608-1.31C8.416 2.175 8.796 2.163 12 2.163zm0 1.8c-3.15 0-3.507.012-4.741.07-1.063.05-1.64.216-2.022.364-.51.197-.875.433-1.26.818-.385.385-.621.75-.818 1.26-.148.382-.314.959-.364 2.022-.058 1.234-.07 1.591-.07 4.741s.012 3.507.07 4.741c.05 1.063.216 1.64.364 2.022.197.51.433.875.818 1.26.385.385.75.621 1.26.818.382.148.959.314 2.022.364 1.234.058 1.591.07 4.741.07s3.507-.012 4.741-.07c1.063-.05 1.64-.216 2.022-.364.51-.197.875-.433 1.26-.818.385-.385.621-.75.818-1.26.148-.382.314-.959.364-2.022.058-1.234.07-1.591.07-4.741s-.012-3.507-.07-4.741c-.05-1.063-.216-1.64-.364-2.022-.197-.51-.433-.875-.818-1.26-.385-.385-.75-.621-1.26-.818-.382-.148-.959-.314-2.022-.364-1.234-.058-1.591-.07-4.741-.07zM12 5.838A6.162 6.162 0 0 0 5.838 12 6.162 6.162 0 0 0 12 18.162 6.162 6.162 0 0 0 18.162 12 6.162 6.162 0 0 0 12 5.838zm0 10.162A4 4 0 1 1 16 12a4 4 0 0 1-4 4zm6.406-11.845a1.44 1.44 0 1 1-2.88 0 1.44 1.44 0 0 1 2.88 0z"/>
</svg>
