<svg xmlns="http://www.w3.org/2000/svg" viewBox="0 0 24 24">
  <path fill="black" d="M20.447 20.452H16.89v-5.569c0-1.328-.027-3.039-1.852-3.039-1.853 0-2.136 1.445-2.136 2.939v5.669H9.345V9h3.41v1.561h.049c.476-.9 1.637-1.852 3.37-1.852 3.601 0 4.267 2.37 4.267 5.455v6.288zM5.337 7.433A1.984 1.984 0 1 1 5.336 3.466a1.984 1.984 0 0 1 .001 3.967zM7.119 20.452H3.554V9h3.565v11.452zM22.225 0H1.771C.792 0 0 .774 0 1.729v20.542C0 23.225.792 24 1.771 24h20.451C23.2 24 24 23.225 24 22.271V1.729C24 .774 23.2 0 22.225 0z"/>
</svg>
